<?xml version="1.0" encoding="UTF-8" standalone="no"?>
<svg
   xmlns:dc="http://purl.org/dc/elements/1.1/"
   xmlns:cc="http://creativecommons.org/ns#"
   xmlns:rdf="http://www.w3.org/1999/02/22-rdf-syntax-ns#"
   xmlns:svg="http://www.w3.org/2000/svg"
   xmlns="http://www.w3.org/2000/svg"
   xmlns:sodipodi="http://sodipodi.sourceforge.net/DTD/sodipodi-0.dtd"
   xmlns:inkscape="http://www.inkscape.org/namespaces/inkscape"
   version="1.0"
   width="322.000000pt"
   height="267.000000pt"
   viewBox="0 0 322.000000 267.000000"
   preserveAspectRatio="xMidYMid meet"
   id="svg4152"
   inkscape:version="0.91 r13725"
   sodipodi:docname="book_da_home.svg">
  <defs
     id="defs4172" />
  <sodipodi:namedview
     pagecolor="#ffffff"
     bordercolor="#666666"
     borderopacity="1"
     objecttolerance="10"
     gridtolerance="10"
     guidetolerance="10"
     inkscape:pageopacity="0"
     inkscape:pageshadow="2"
     inkscape:window-width="1280"
     inkscape:window-height="673"
     id="namedview4170"
     showgrid="false"
     inkscape:zoom="1.3962547"
     inkscape:cx="206.62151"
     inkscape:cy="166.875"
     inkscape:window-x="-4"
     inkscape:window-y="-4"
     inkscape:window-maximized="1"
     inkscape:current-layer="svg4152"
     inkscape:snap-page="true" />
  <metadata
     id="metadata4154">
Created by potrace 1.14, written by Peter Selinger 2001-2017
<rdf:RDF>
  <cc:Work
     rdf:about="">
    <dc:format>image/svg+xml</dc:format>
    <dc:type
       rdf:resource="http://purl.org/dc/dcmitype/StillImage" />
  </cc:Work>
</rdf:RDF>
</metadata>
  <path
     style="fill:#3c3c3c;stroke:none;fill-opacity:1"
     inkscape:connector-curvature="0"
     id="path4158"
     d="m 53,99.9 0,99.8 4.6,0.7 c 7.5,1 27.6,8.1 38.7,13.7 5.6,2.8 14.7,8.1 20.2,11.7 12.4,8.2 29.5,25.1 34.5,33.9 1.9,3.4 3.8,6.3 4.3,6.3 0.4,0 0.6,-42.9 0.5,-95.2 l -0.3,-95.3 -3,-5.8 C 149,62.7 136,48.6 124.6,39.4 113.7,30.6 92.3,16.4 81.4,10.8 70.9,5.4 57.8,0 55,0 53,0 53,1.1 53,99.9 Z" />
  <path
     style="fill:#3c3c3c;stroke:none;fill-opacity:1"
     inkscape:connector-curvature="0"
     id="path4160"
     d="m 267,5.9 c -46.8,18.8 -84.4,46.2 -97.4,71 l -3.6,6.9 0,91.6 c 0,55.3 0.4,91.6 0.9,91.6 0.5,0 3.1,-3.3 5.7,-7.2 12,-18.1 33.9,-34.4 61.4,-45.6 7.8,-3.2 25.4,-8.8 37.5,-11.9 l 7,-1.8 0.3,-99.3 c 0.2,-79 0,-99.2 -1,-99.2 -0.7,0 -5.6,1.8 -10.8,3.9 z" />
  <path
     style="fill:#3c3c3c;stroke:none;fill-opacity:1"
     inkscape:connector-curvature="0"
     id="path4162"
     d="m 26,16.4 c -0.2,19.6 0.1,199 0.3,199.2 0.1,0.2 5,1 10.7,1.9 25.2,4 53.2,13.1 79.9,26.1 8.4,4.1 15.5,7.3 15.8,7.1 0.2,-0.3 -2.7,-3.2 -6.4,-6.7 -18.4,-16.9 -47.1,-31 -72.8,-35.9 l -9,-1.8 L 44,112.5 43.5,18.6 40.1,17.9 C 34.2,16.7 26,15.8 26,16.4 Z" />
  <path
     style="fill:#3c3c3c;stroke:none;fill-opacity:1"
     inkscape:connector-curvature="0"
     id="path4164"
     d="m 290.5,17.9 -3,0.6 -0.3,94.7 -0.2,94.7 -5.8,1.1 c -17.2,3.5 -37.2,9.7 -50,15.5 -4.5,2.1 -8.2,4.2 -8.2,4.6 0,1.3 0,1.3 12.3,-2.6 15,-4.7 27.2,-7.1 45.2,-9.1 8.3,-0.9 15.1,-1.8 15.3,-1.9 0.1,-0.1 0.2,-44.7 0.2,-99.1 0.1,-79.8 -0.2,-98.9 -1.2,-99 -0.7,-0.1 -2.6,0.1 -4.3,0.5 z" />
  <path
     style="fill:#3c3c3c;stroke:none;fill-opacity:1"
     inkscape:connector-curvature="0"
     id="path4166"
     d="M 0.7,35.7 C 0.3,36 0,82.8 0,139.5 l 0,103.2 17.9,-0.5 c 32,-0.8 63.6,3.6 95.5,13.3 9.3,2.8 9.6,2.9 9.6,1.4 0,-1.2 -20.3,-11 -33.5,-16.2 C 69.4,232.8 42,226 24.8,224.5 L 17,223.8 17,130 17,36.3 10.9,35.6 C 3.1,34.8 1.5,34.8 0.7,35.7 Z" />
  <path
     style="fill:#3c3c3c;stroke:none;fill-opacity:1"
     inkscape:connector-curvature="0"
     id="path4168"
     d="m 308.3,35.7 -3.3,0.4 0,93.9 0,93.8 -9.7,0.7 c -30.8,2.1 -61.7,9.6 -82.4,20 -12.9,6.5 -25,14.7 -23.8,16 0.4,0.3 7.1,-1.4 15,-3.9 16.7,-5.3 32.4,-9 47.5,-11.1 14.3,-2 44.1,-3.4 58.7,-2.8 l 11.7,0.6 -0.2,-103.9 -0.3,-103.9 -5,-0.1 c -2.7,-0.1 -6.5,0.1 -8.2,0.3 z" />
</svg>
